<mxfile host="Electron" agent="Mozilla/5.0 (Macintosh; Intel Mac OS X 10_15_7) AppleWebKit/537.36 (KHTML, like Gecko) draw.io/24.7.8 Chrome/128.0.6613.36 Electron/32.0.1 Safari/537.36" version="24.7.8">
  <diagram name="第 1 页" id="vOwTCtGYsXDZ4DPpxDcl">
    <mxGraphModel dx="1434" dy="778" grid="1" gridSize="10" guides="1" tooltips="1" connect="1" arrows="1" fold="1" page="1" pageScale="1" pageWidth="827" pageHeight="1169" math="0" shadow="0">
      <root>
        <mxCell id="0" />
        <mxCell id="1" parent="0" />
        <mxCell id="YlSmMOGyO37-bstjp8w8-1" value="" style="endArrow=classic;html=1;rounded=0;" parent="1" edge="1">
          <mxGeometry width="50" height="50" relative="1" as="geometry">
            <mxPoint x="90" y="400" as="sourcePoint" />
            <mxPoint x="720" y="400" as="targetPoint" />
          </mxGeometry>
        </mxCell>
        <mxCell id="YlSmMOGyO37-bstjp8w8-2" value="重要性" style="text;html=1;align=center;verticalAlign=middle;resizable=0;points=[];autosize=1;strokeColor=none;fillColor=none;" parent="1" vertex="1">
          <mxGeometry x="730" y="388" width="60" height="30" as="geometry" />
        </mxCell>
        <mxCell id="YlSmMOGyO37-bstjp8w8-3" value="" style="endArrow=classic;html=1;rounded=0;" parent="1" edge="1">
          <mxGeometry width="50" height="50" relative="1" as="geometry">
            <mxPoint x="400" y="600" as="sourcePoint" />
            <mxPoint x="400" y="80" as="targetPoint" />
          </mxGeometry>
        </mxCell>
        <mxCell id="YlSmMOGyO37-bstjp8w8-4" value="緊急度" style="text;html=1;align=center;verticalAlign=middle;resizable=0;points=[];autosize=1;strokeColor=none;fillColor=none;" parent="1" vertex="1">
          <mxGeometry x="370" y="50" width="60" height="30" as="geometry" />
        </mxCell>
        <mxCell id="YlSmMOGyO37-bstjp8w8-5" value="&lt;b&gt;&lt;font style=&quot;font-size: 14px;&quot;&gt;重要且緊急&lt;/font&gt;&lt;/b&gt;" style="text;whiteSpace=wrap;html=1;align=center;" parent="1" vertex="1">
          <mxGeometry x="550" y="100" width="90" height="30" as="geometry" />
        </mxCell>
        <mxCell id="YlSmMOGyO37-bstjp8w8-6" value="&lt;b style=&quot;font-size: 14px;&quot;&gt;&lt;font style=&quot;font-size: 14px;&quot;&gt;緊急&lt;/font&gt;但不重要&lt;/b&gt;" style="text;whiteSpace=wrap;html=1;align=center;" parent="1" vertex="1">
          <mxGeometry x="170" y="100" width="100" height="30" as="geometry" />
        </mxCell>
        <mxCell id="YlSmMOGyO37-bstjp8w8-7" value="&lt;font style=&quot;font-size: 14px;&quot;&gt;&lt;b&gt;不緊急且不重要&lt;/b&gt;&lt;/font&gt;" style="text;whiteSpace=wrap;html=1;" parent="1" vertex="1">
          <mxGeometry x="170" y="440" width="100" height="30" as="geometry" />
        </mxCell>
        <mxCell id="YlSmMOGyO37-bstjp8w8-8" value="&lt;b&gt;&lt;font style=&quot;font-size: 14px;&quot;&gt;重要但不緊急&lt;/font&gt;&lt;/b&gt;" style="text;whiteSpace=wrap;html=1;" parent="1" vertex="1">
          <mxGeometry x="550" y="440" width="90" height="30" as="geometry" />
        </mxCell>
        <mxCell id="YlSmMOGyO37-bstjp8w8-9" value="- 緊急修復重大線上 bug（Production incident）&lt;br&gt;- 突然的安全性漏洞修補（Security patches）&lt;br&gt;- 交付日快到的功能卡關排解（Deadline-driven fixes）" style="text;whiteSpace=wrap;html=1;" parent="1" vertex="1">
          <mxGeometry x="460" y="160" width="320" height="70" as="geometry" />
        </mxCell>
        <mxCell id="YlSmMOGyO37-bstjp8w8-10" value="- 上層催促的小需求但影響不大（Minor feature rush）&lt;br&gt;- 無意義的緊急會議（Pointless meetings）" style="text;whiteSpace=wrap;html=1;" parent="1" vertex="1">
          <mxGeometry x="80" y="170" width="320" height="50" as="geometry" />
        </mxCell>
        <mxCell id="YlSmMOGyO37-bstjp8w8-11" value="- 追一些不必要的新潮技術（Shiny new tech）&lt;br&gt;- 無目的地優化（過早優化 Premature optimization）" style="text;whiteSpace=wrap;html=1;" parent="1" vertex="1">
          <mxGeometry x="80" y="490" width="310" height="50" as="geometry" />
        </mxCell>
        <mxCell id="YlSmMOGyO37-bstjp8w8-12" value="- 系統架構設計（System design）&lt;br&gt;- 重構技術債（Technical debt refactor）&lt;br&gt;- 自動化測試建立（Test automation）&lt;br&gt;- 持續學習新技術（Skill up）" style="text;whiteSpace=wrap;html=1;" parent="1" vertex="1">
          <mxGeometry x="470" y="475" width="250" height="80" as="geometry" />
        </mxCell>
        <mxCell id="YlSmMOGyO37-bstjp8w8-13" value="- 追逐不切實際的新技術（無直接效益的技術研究）&lt;br&gt;- 重複造輪子（自己寫明明有現成套件）&lt;br&gt;- 花太多時間做低使用率功能" style="text;whiteSpace=wrap;html=1;" parent="1" vertex="1">
          <mxGeometry x="80" y="520" width="300" height="70" as="geometry" />
        </mxCell>
        <mxCell id="YlSmMOGyO37-bstjp8w8-14" value="- 新功能開發規劃與設計（New feature design）&lt;br&gt;- 技術債重構（Refactoring tech debt）&lt;br&gt;- 系統架構升級與性能優化&lt;br&gt;- 自動化測試系統建置&lt;br&gt;- 深度用戶訪談、需求蒐集" style="text;whiteSpace=wrap;html=1;" parent="1" vertex="1">
          <mxGeometry x="470" y="535" width="290" height="100" as="geometry" />
        </mxCell>
        <mxCell id="YlSmMOGyO37-bstjp8w8-15" value="- 線上重大故障緊急修復（Prod bug hotfix）&lt;br&gt;- 緊急需求變更（像是法規變更）&lt;br&gt;- 上線前的最後測試與修正&lt;br&gt;- 關鍵客戶提出的blocking問題處理" style="text;whiteSpace=wrap;html=1;" parent="1" vertex="1">
          <mxGeometry x="460" y="210" width="270" height="80" as="geometry" />
        </mxCell>
        <mxCell id="YlSmMOGyO37-bstjp8w8-16" value="- 頻繁但無太大價值的小改版需求（如小圖調整、文案修改緊急催促）&lt;br&gt;- 無意義但時間急迫的內部會議" style="text;whiteSpace=wrap;html=1;" parent="1" vertex="1">
          <mxGeometry x="80" y="200" width="400" height="50" as="geometry" />
        </mxCell>
        <mxCell id="YlSmMOGyO37-bstjp8w8-17" value="&lt;b&gt;優秀的開發與產品團隊，不是把「火災」處理得很快，而是讓「火災」根本發生得很少。&lt;/b&gt;" style="text;whiteSpace=wrap;html=1;" parent="1" vertex="1">
          <mxGeometry x="150" y="710" width="500" height="40" as="geometry" />
        </mxCell>
        <mxCell id="fAezpIUFlMQ5wlY4UxWV-1" value="- 線上服務中斷（Server down）&lt;br&gt;- 緊急 Bug 修復（如支付異常）&lt;br&gt;- 法規變更應急修正（如 GDPR）&lt;br&gt;- VIP 客戶重大反饋" style="text;whiteSpace=wrap;html=1;" vertex="1" parent="1">
          <mxGeometry x="460" y="270" width="210" height="80" as="geometry" />
        </mxCell>
        <mxCell id="fAezpIUFlMQ5wlY4UxWV-2" value="- 架構重構（如微服務化）&lt;br&gt;- 技術債還款（如 DB 優化）&lt;br&gt;- CI/CD 優化&lt;br&gt;- 性能調校、資安強化&lt;br&gt;- 需求規劃、原型設計" style="text;whiteSpace=wrap;html=1;" vertex="1" parent="1">
          <mxGeometry x="470" y="610" width="180" height="100" as="geometry" />
        </mxCell>
        <mxCell id="fAezpIUFlMQ5wlY4UxWV-3" value="- 客戶臨時小需求（如調整色系）&lt;br&gt;- 小型支援請求（如 Helpdesk）&lt;br&gt;- 突發內部報表需求&lt;br&gt;- 非策略性高層要求" style="text;whiteSpace=wrap;html=1;" vertex="1" parent="1">
          <mxGeometry x="80" y="230" width="210" height="80" as="geometry" />
        </mxCell>
        <mxCell id="fAezpIUFlMQ5wlY4UxWV-4" value="- 過度美化後台系統&lt;br&gt;- 無人使用的冷門功能&lt;br&gt;- 無意義的會議&lt;br&gt;- 技術炫技（無商業價值的新技術套件）" style="text;whiteSpace=wrap;html=1;" vertex="1" parent="1">
          <mxGeometry x="80" y="570" width="240" height="80" as="geometry" />
        </mxCell>
        <mxCell id="fAezpIUFlMQ5wlY4UxWV-5" value="" style="endArrow=classic;html=1;rounded=0;" edge="1" parent="1">
          <mxGeometry width="50" height="50" relative="1" as="geometry">
            <mxPoint x="80" y="1250" as="sourcePoint" />
            <mxPoint x="710" y="1250" as="targetPoint" />
          </mxGeometry>
        </mxCell>
        <mxCell id="fAezpIUFlMQ5wlY4UxWV-6" value="重要性" style="text;html=1;align=center;verticalAlign=middle;resizable=0;points=[];autosize=1;strokeColor=none;fillColor=none;" vertex="1" parent="1">
          <mxGeometry x="720" y="1238" width="60" height="30" as="geometry" />
        </mxCell>
        <mxCell id="fAezpIUFlMQ5wlY4UxWV-7" value="" style="endArrow=classic;html=1;rounded=0;" edge="1" parent="1">
          <mxGeometry width="50" height="50" relative="1" as="geometry">
            <mxPoint x="390" y="1450" as="sourcePoint" />
            <mxPoint x="390" y="930" as="targetPoint" />
          </mxGeometry>
        </mxCell>
        <mxCell id="fAezpIUFlMQ5wlY4UxWV-8" value="緊急度" style="text;html=1;align=center;verticalAlign=middle;resizable=0;points=[];autosize=1;strokeColor=none;fillColor=none;" vertex="1" parent="1">
          <mxGeometry x="360" y="900" width="60" height="30" as="geometry" />
        </mxCell>
        <mxCell id="fAezpIUFlMQ5wlY4UxWV-9" value="&lt;b&gt;&lt;font style=&quot;font-size: 14px;&quot;&gt;重要且緊急&lt;/font&gt;&lt;/b&gt;" style="text;whiteSpace=wrap;html=1;align=center;" vertex="1" parent="1">
          <mxGeometry x="540" y="950" width="90" height="30" as="geometry" />
        </mxCell>
        <mxCell id="fAezpIUFlMQ5wlY4UxWV-10" value="&lt;b style=&quot;font-size: 14px;&quot;&gt;&lt;font style=&quot;font-size: 14px;&quot;&gt;緊急&lt;/font&gt;但不重要&lt;/b&gt;" style="text;whiteSpace=wrap;html=1;align=center;" vertex="1" parent="1">
          <mxGeometry x="160" y="950" width="100" height="30" as="geometry" />
        </mxCell>
        <mxCell id="fAezpIUFlMQ5wlY4UxWV-11" value="&lt;font style=&quot;font-size: 14px;&quot;&gt;&lt;b&gt;不緊急且不重要&lt;/b&gt;&lt;/font&gt;" style="text;whiteSpace=wrap;html=1;" vertex="1" parent="1">
          <mxGeometry x="160" y="1290" width="100" height="30" as="geometry" />
        </mxCell>
        <mxCell id="fAezpIUFlMQ5wlY4UxWV-12" value="&lt;b&gt;&lt;font style=&quot;font-size: 14px;&quot;&gt;重要但不緊急&lt;/font&gt;&lt;/b&gt;" style="text;whiteSpace=wrap;html=1;" vertex="1" parent="1">
          <mxGeometry x="540" y="1290" width="90" height="30" as="geometry" />
        </mxCell>
        <mxCell id="fAezpIUFlMQ5wlY4UxWV-13" value="- 緊急修復重大線上 bug（Production incident）&lt;br&gt;- 突然的安全性漏洞修補（Security patches）&lt;br&gt;- 交付日快到的功能卡關排解（Deadline-driven fixes）" style="text;whiteSpace=wrap;html=1;" vertex="1" parent="1">
          <mxGeometry x="450" y="1010" width="320" height="70" as="geometry" />
        </mxCell>
        <mxCell id="fAezpIUFlMQ5wlY4UxWV-14" value="- 上層催促的小需求但影響不大（Minor feature rush）&lt;br&gt;- 無意義的緊急會議（Pointless meetings）" style="text;whiteSpace=wrap;html=1;" vertex="1" parent="1">
          <mxGeometry x="70" y="1020" width="320" height="50" as="geometry" />
        </mxCell>
        <mxCell id="fAezpIUFlMQ5wlY4UxWV-15" value="- 追一些不必要的新潮技術（Shiny new tech）&lt;br&gt;- 無目的地優化（過早優化 Premature optimization）" style="text;whiteSpace=wrap;html=1;" vertex="1" parent="1">
          <mxGeometry x="70" y="1340" width="310" height="50" as="geometry" />
        </mxCell>
        <mxCell id="fAezpIUFlMQ5wlY4UxWV-16" value="- 系統架構設計（System design）&lt;br&gt;- 重構技術債（Technical debt refactor）&lt;br&gt;- 自動化測試建立（Test automation）&lt;br&gt;- 持續學習新技術（Skill up）" style="text;whiteSpace=wrap;html=1;" vertex="1" parent="1">
          <mxGeometry x="460" y="1325" width="250" height="80" as="geometry" />
        </mxCell>
        <mxCell id="fAezpIUFlMQ5wlY4UxWV-17" value="- 追逐不切實際的新技術（無直接效益的技術研究）&lt;br&gt;- 重複造輪子（自己寫明明有現成套件）&lt;br&gt;- 花太多時間做低使用率功能" style="text;whiteSpace=wrap;html=1;" vertex="1" parent="1">
          <mxGeometry x="70" y="1370" width="300" height="70" as="geometry" />
        </mxCell>
        <mxCell id="fAezpIUFlMQ5wlY4UxWV-18" value="- 新功能開發規劃與設計（New feature design）&lt;br&gt;- 技術債重構（Refactoring tech debt）&lt;br&gt;- 系統架構升級與性能優化&lt;br&gt;- 自動化測試系統建置&lt;br&gt;- 深度用戶訪談、需求蒐集" style="text;whiteSpace=wrap;html=1;" vertex="1" parent="1">
          <mxGeometry x="460" y="1385" width="290" height="100" as="geometry" />
        </mxCell>
        <mxCell id="fAezpIUFlMQ5wlY4UxWV-19" value="- 線上重大故障緊急修復（Prod bug hotfix）&lt;br&gt;- 緊急需求變更（像是法規變更）&lt;br&gt;- 上線前的最後測試與修正&lt;br&gt;- 關鍵客戶提出的blocking問題處理" style="text;whiteSpace=wrap;html=1;" vertex="1" parent="1">
          <mxGeometry x="450" y="1060" width="270" height="80" as="geometry" />
        </mxCell>
        <mxCell id="fAezpIUFlMQ5wlY4UxWV-20" value="- 頻繁但無太大價值的小改版需求（如小圖調整、文案修改緊急催促）&lt;br&gt;- 無意義但時間急迫的內部會議" style="text;whiteSpace=wrap;html=1;" vertex="1" parent="1">
          <mxGeometry x="70" y="1050" width="400" height="50" as="geometry" />
        </mxCell>
        <mxCell id="fAezpIUFlMQ5wlY4UxWV-21" value="&lt;b&gt;優秀的開發與產品團隊，不是把「火災」處理得很快，而是讓「火災」根本發生得很少。&lt;/b&gt;" style="text;whiteSpace=wrap;html=1;" vertex="1" parent="1">
          <mxGeometry x="140" y="1560" width="500" height="40" as="geometry" />
        </mxCell>
        <mxCell id="fAezpIUFlMQ5wlY4UxWV-22" value="- 線上服務中斷（Server down）&lt;br&gt;- 緊急 Bug 修復（如支付異常）&lt;br&gt;- 法規變更應急修正（如 GDPR）&lt;br&gt;- VIP 客戶重大反饋" style="text;whiteSpace=wrap;html=1;" vertex="1" parent="1">
          <mxGeometry x="450" y="1120" width="210" height="80" as="geometry" />
        </mxCell>
        <mxCell id="fAezpIUFlMQ5wlY4UxWV-23" value="- 架構重構（如微服務化）&lt;br&gt;- 技術債還款（如 DB 優化）&lt;br&gt;- CI/CD 優化&lt;br&gt;- 性能調校、資安強化&lt;br&gt;- 需求規劃、原型設計" style="text;whiteSpace=wrap;html=1;" vertex="1" parent="1">
          <mxGeometry x="460" y="1460" width="180" height="100" as="geometry" />
        </mxCell>
        <mxCell id="fAezpIUFlMQ5wlY4UxWV-24" value="- 客戶臨時小需求（如調整色系）&lt;br&gt;- 小型支援請求（如 Helpdesk）&lt;br&gt;- 突發內部報表需求&lt;br&gt;- 非策略性高層要求" style="text;whiteSpace=wrap;html=1;" vertex="1" parent="1">
          <mxGeometry x="70" y="1080" width="210" height="80" as="geometry" />
        </mxCell>
        <mxCell id="fAezpIUFlMQ5wlY4UxWV-25" value="- 過度美化後台系統&lt;br&gt;- 無人使用的冷門功能&lt;br&gt;- 無意義的會議&lt;br&gt;- 技術炫技（無商業價值的新技術套件）" style="text;whiteSpace=wrap;html=1;" vertex="1" parent="1">
          <mxGeometry x="70" y="1420" width="240" height="80" as="geometry" />
        </mxCell>
        <UserObject label="&lt;h1 data-start=&quot;920&quot; data-end=&quot;939&quot; class=&quot;&quot;&gt;團隊培養 × 艾森豪矩陣（正式版）&lt;/h1&gt;&#xa;&lt;div class=&quot;group pointer-events-none relative flex justify-center *:pointer-events-auto&quot;&gt;&lt;span class=&quot;pointer-events-none absolute start-full top-4 z-10 hidden h-full w-fit ps-2 md:block&quot; data-state=&quot;closed&quot;&gt;&lt;button class=&quot;hover:bg-token-main-surface-secondary text-token-text-secondary pointer-events-auto rounded-lg px-1 py-1 opacity-0 transition-opacity duration-200 group-focus-within:opacity-100 group-hover:opacity-100&quot;&gt;&lt;svg width=&quot;24&quot; height=&quot;24&quot; viewBox=&quot;0 0 24 24&quot; fill=&quot;none&quot; xmlns=&quot;http://www.w3.org/2000/svg&quot; class=&quot;icon-md-heavy&quot;&gt;&lt;path fill-rule=&quot;evenodd&quot; clip-rule=&quot;evenodd&quot; d=&quot;M7 5C7 3.34315 8.34315 2 10 2H19C20.6569 2 22 3.34315 22 5V14C22 15.6569 20.6569 17 19 17H17V19C17 20.6569 15.6569 22 14 22H5C3.34315 22 2 20.6569 2 19V10C2 8.34315 3.34315 7 5 7H7V5ZM9 7H14C15.6569 7 17 8.34315 17 10V15H19C19.5523 15 20 14.5523 20 14V5C20 4.44772 19.5523 4 19 4H10C9.44772 4 9 4.44772 9 5V7ZM5 9C4.44772 9 4 9.44772 4 10V19C4 19.5523 4.44772 20 5 20H14C14.5523 20 15 19.5523 15 19V10C15 9.44772 14.5523 9 14 9H5Z&quot; fill=&quot;currentColor&quot;&gt;&lt;/path&gt;&lt;/svg&gt;&lt;/button&gt;&lt;/span&gt;&lt;div class=&quot;tableContainer horzScrollShadows relative&quot;&gt;&lt;table class=&quot;min-w-full&quot; data-start=&quot;941&quot; data-end=&quot;1659&quot;&gt;&lt;thead data-start=&quot;941&quot; data-end=&quot;1071&quot;&gt;&lt;tr data-start=&quot;941&quot; data-end=&quot;1071&quot;&gt;&lt;th data-start=&quot;941&quot; data-end=&quot;962&quot;&gt;類型&lt;/th&gt;&lt;th data-start=&quot;962&quot; data-end=&quot;988&quot;&gt;定義&lt;/th&gt;&lt;th data-start=&quot;988&quot; data-end=&quot;1042&quot;&gt;團隊培養例子&lt;/th&gt;&lt;th data-start=&quot;1042&quot; data-end=&quot;1071&quot;&gt;行動建議&lt;/th&gt;&lt;/tr&gt;&lt;/thead&gt;&lt;tbody data-start=&quot;1214&quot; data-end=&quot;1659&quot;&gt;&lt;tr data-start=&quot;1214&quot; data-end=&quot;1330&quot;&gt;&lt;td class=&quot;max-w-[calc(var(--thread-content-max-width)*2/3)]&quot; data-start=&quot;1214&quot; data-end=&quot;1234&quot;&gt;&lt;strong data-start=&quot;1216&quot; data-end=&quot;1224&quot;&gt;第一象限&lt;/strong&gt;&lt;br&gt;緊急且重要&lt;/td&gt;&lt;td class=&quot;max-w-[calc(var(--thread-content-max-width)*2/3)]&quot; data-start=&quot;1234&quot; data-end=&quot;1258&quot;&gt;基本生存與應急能力&lt;/td&gt;&lt;td class=&quot;max-w-[calc(var(--thread-content-max-width)*2/3)] min-w-[calc(var(--thread-content-max-width)/3)]&quot; data-start=&quot;1258&quot; data-end=&quot;1308&quot;&gt;- 線上系統問題處理流程訓練&lt;br&gt;- 部署、回滾、故障處理演練&lt;br&gt;- 危機溝通與應變流程&lt;/td&gt;&lt;td class=&quot;max-w-[calc(var(--thread-content-max-width)*2/3)]&quot; data-start=&quot;1308&quot; data-end=&quot;1330&quot;&gt;必須訓練到位&lt;br&gt;建立常態演練流程&lt;/td&gt;&lt;/tr&gt;&lt;tr data-start=&quot;1331&quot; data-end=&quot;1450&quot;&gt;&lt;td class=&quot;max-w-[calc(var(--thread-content-max-width)*2/3)]&quot; data-start=&quot;1331&quot; data-end=&quot;1352&quot;&gt;&lt;strong data-start=&quot;1333&quot; data-end=&quot;1341&quot;&gt;第二象限&lt;/strong&gt;&lt;br&gt;重要但不緊急&lt;/td&gt;&lt;td class=&quot;max-w-[calc(var(--thread-content-max-width)*2/3)]&quot; data-start=&quot;1352&quot; data-end=&quot;1375&quot;&gt;長期組織競爭力與核心素養&lt;/td&gt;&lt;td class=&quot;max-w-[calc(var(--thread-content-max-width)*2/3)] min-w-[calc(var(--thread-content-max-width)/3)]&quot; data-start=&quot;1375&quot; data-end=&quot;1425&quot;&gt;- 系統設計與程式品質提升訓練&lt;br&gt;- 定期技術分享、讀書會&lt;br&gt;- 領導力與協作能力培養&lt;/td&gt;&lt;td class=&quot;max-w-[calc(var(--thread-content-max-width)*2/3)]&quot; data-start=&quot;1425&quot; data-end=&quot;1450&quot;&gt;制定培養計畫&lt;br&gt;納入 OKR、能力矩陣&lt;/td&gt;&lt;/tr&gt;&lt;tr data-start=&quot;1451&quot; data-end=&quot;1553&quot;&gt;&lt;td class=&quot;max-w-[calc(var(--thread-content-max-width)*2/3)]&quot; data-start=&quot;1451&quot; data-end=&quot;1472&quot;&gt;&lt;strong data-start=&quot;1453&quot; data-end=&quot;1461&quot;&gt;第三象限&lt;/strong&gt;&lt;br&gt;緊急但不重要&lt;/td&gt;&lt;td class=&quot;max-w-[calc(var(--thread-content-max-width)*2/3)]&quot; data-start=&quot;1472&quot; data-end=&quot;1496&quot;&gt;短期支援與機會練兵&lt;/td&gt;&lt;td class=&quot;max-w-[calc(var(--thread-content-max-width)*2/3)]&quot; data-start=&quot;1496&quot; data-end=&quot;1533&quot;&gt;- 新人負責小型專案、支援次要需求&lt;br&gt;- 特定小工具、小優化開發&lt;/td&gt;&lt;td class=&quot;max-w-[calc(var(--thread-content-max-width)*2/3)]&quot; data-start=&quot;1533&quot; data-end=&quot;1553&quot;&gt;安排初階人員練習&lt;br&gt;適度監督&lt;/td&gt;&lt;/tr&gt;&lt;tr data-start=&quot;1554&quot; data-end=&quot;1659&quot;&gt;&lt;td class=&quot;max-w-[calc(var(--thread-content-max-width)*2/3)]&quot; data-start=&quot;1554&quot; data-end=&quot;1576&quot;&gt;&lt;strong data-start=&quot;1556&quot; data-end=&quot;1564&quot;&gt;第四象限&lt;/strong&gt;&lt;br&gt;不緊急也不重要&lt;/td&gt;&lt;td class=&quot;max-w-[calc(var(--thread-content-max-width)*2/3)]&quot; data-start=&quot;1576&quot; data-end=&quot;1603&quot;&gt;避免資源浪費&lt;/td&gt;&lt;td class=&quot;max-w-[calc(var(--thread-content-max-width)*2/3)]&quot; data-start=&quot;1603&quot; data-end=&quot;1635&quot;&gt;- 非核心功能的過度優化&lt;br&gt;- 無效會議、重複勞動流程&lt;/td&gt;&lt;td class=&quot;max-w-[calc(var(--thread-content-max-width)*2/3)]&quot; data-start=&quot;1635&quot; data-end=&quot;1659&quot;&gt;盡量精簡或取消&lt;br&gt;資源集中在重點目標&lt;/td&gt;&lt;/tr&gt;&lt;/tbody&gt;&lt;/table&gt;&lt;/div&gt;&lt;/div&gt;" link="&lt;h1 data-start=&quot;920&quot; data-end=&quot;939&quot; class=&quot;&quot;&gt;團隊培養 × 艾森豪矩陣（正式版）&lt;/h1&gt;&#xa;&lt;div class=&quot;group pointer-events-none relative flex justify-center *:pointer-events-auto&quot;&gt;&lt;span class=&quot;pointer-events-none absolute start-full top-4 z-10 hidden h-full w-fit ps-2 md:block&quot; data-state=&quot;closed&quot;&gt;&lt;button class=&quot;hover:bg-token-main-surface-secondary text-token-text-secondary pointer-events-auto rounded-lg px-1 py-1 opacity-0 transition-opacity duration-200 group-focus-within:opacity-100 group-hover:opacity-100&quot;&gt;&lt;svg width=&quot;24&quot; height=&quot;24&quot; viewBox=&quot;0 0 24 24&quot; fill=&quot;none&quot; xmlns=&quot;http://www.w3.org/2000/svg&quot; class=&quot;icon-md-heavy&quot;&gt;&lt;path fill-rule=&quot;evenodd&quot; clip-rule=&quot;evenodd&quot; d=&quot;M7 5C7 3.34315 8.34315 2 10 2H19C20.6569 2 22 3.34315 22 5V14C22 15.6569 20.6569 17 19 17H17V19C17 20.6569 15.6569 22 14 22H5C3.34315 22 2 20.6569 2 19V10C2 8.34315 3.34315 7 5 7H7V5ZM9 7H14C15.6569 7 17 8.34315 17 10V15H19C19.5523 15 20 14.5523 20 14V5C20 4.44772 19.5523 4 19 4H10C9.44772 4 9 4.44772 9 5V7ZM5 9C4.44772 9 4 9.44772 4 10V19C4 19.5523 4.44772 20 5 20H14C14.5523 20 15 19.5523 15 19V10C15 9.44772 14.5523 9 14 9H5Z&quot; fill=&quot;currentColor&quot;&gt;&lt;/path&gt;&lt;/svg&gt;&lt;/button&gt;&lt;/span&gt;&lt;div class=&quot;tableContainer horzScrollShadows relative&quot;&gt;&lt;table class=&quot;min-w-full&quot; data-start=&quot;941&quot; data-end=&quot;1659&quot;&gt;&lt;thead data-start=&quot;941&quot; data-end=&quot;1071&quot;&gt;&lt;tr data-start=&quot;941&quot; data-end=&quot;1071&quot;&gt;&lt;th data-start=&quot;941&quot; data-end=&quot;962&quot;&gt;類型&lt;/th&gt;&lt;th data-start=&quot;962&quot; data-end=&quot;988&quot;&gt;定義&lt;/th&gt;&lt;th data-start=&quot;988&quot; data-end=&quot;1042&quot;&gt;團隊培養例子&lt;/th&gt;&lt;th data-start=&quot;1042&quot; data-end=&quot;1071&quot;&gt;行動建議&lt;/th&gt;&lt;/tr&gt;&lt;/thead&gt;&lt;tbody data-start=&quot;1214&quot; data-end=&quot;1659&quot;&gt;&lt;tr data-start=&quot;1214&quot; data-end=&quot;1330&quot;&gt;&lt;td class=&quot;max-w-[calc(var(--thread-content-max-width)*2/3)]&quot; data-start=&quot;1214&quot; data-end=&quot;1234&quot;&gt;&lt;strong data-start=&quot;1216&quot; data-end=&quot;1224&quot;&gt;第一象限&lt;/strong&gt;&lt;br&gt;緊急且重要&lt;/td&gt;&lt;td class=&quot;max-w-[calc(var(--thread-content-max-width)*2/3)]&quot; data-start=&quot;1234&quot; data-end=&quot;1258&quot;&gt;基本生存與應急能力&lt;/td&gt;&lt;td class=&quot;max-w-[calc(var(--thread-content-max-width)*2/3)] min-w-[calc(var(--thread-content-max-width)/3)]&quot; data-start=&quot;1258&quot; data-end=&quot;1308&quot;&gt;- 線上系統問題處理流程訓練&lt;br&gt;- 部署、回滾、故障處理演練&lt;br&gt;- 危機溝通與應變流程&lt;/td&gt;&lt;td class=&quot;max-w-[calc(var(--thread-content-max-width)*2/3)]&quot; data-start=&quot;1308&quot; data-end=&quot;1330&quot;&gt;必須訓練到位&lt;br&gt;建立常態演練流程&lt;/td&gt;&lt;/tr&gt;&lt;tr data-start=&quot;1331&quot; data-end=&quot;1450&quot;&gt;&lt;td class=&quot;max-w-[calc(var(--thread-content-max-width)*2/3)]&quot; data-start=&quot;1331&quot; data-end=&quot;1352&quot;&gt;&lt;strong data-start=&quot;1333&quot; data-end=&quot;1341&quot;&gt;第二象限&lt;/strong&gt;&lt;br&gt;重要但不緊急&lt;/td&gt;&lt;td class=&quot;max-w-[calc(var(--thread-content-max-width)*2/3)]&quot; data-start=&quot;1352&quot; data-end=&quot;1375&quot;&gt;長期組織競爭力與核心素養&lt;/td&gt;&lt;td class=&quot;max-w-[calc(var(--thread-content-max-width)*2/3)] min-w-[calc(var(--thread-content-max-width)/3)]&quot; data-start=&quot;1375&quot; data-end=&quot;1425&quot;&gt;- 系統設計與程式品質提升訓練&lt;br&gt;- 定期技術分享、讀書會&lt;br&gt;- 領導力與協作能力培養&lt;/td&gt;&lt;td class=&quot;max-w-[calc(var(--thread-content-max-width)*2/3)]&quot; data-start=&quot;1425&quot; data-end=&quot;1450&quot;&gt;制定培養計畫&lt;br&gt;納入 OKR、能力矩陣&lt;/td&gt;&lt;/tr&gt;&lt;tr data-start=&quot;1451&quot; data-end=&quot;1553&quot;&gt;&lt;td class=&quot;max-w-[calc(var(--thread-content-max-width)*2/3)]&quot; data-start=&quot;1451&quot; data-end=&quot;1472&quot;&gt;&lt;strong data-start=&quot;1453&quot; data-end=&quot;1461&quot;&gt;第三象限&lt;/strong&gt;&lt;br&gt;緊急但不重要&lt;/td&gt;&lt;td class=&quot;max-w-[calc(var(--thread-content-max-width)*2/3)]&quot; data-start=&quot;1472&quot; data-end=&quot;1496&quot;&gt;短期支援與機會練兵&lt;/td&gt;&lt;td class=&quot;max-w-[calc(var(--thread-content-max-width)*2/3)]&quot; data-start=&quot;1496&quot; data-end=&quot;1533&quot;&gt;- 新人負責小型專案、支援次要需求&lt;br&gt;- 特定小工具、小優化開發&lt;/td&gt;&lt;td class=&quot;max-w-[calc(var(--thread-content-max-width)*2/3)]&quot; data-start=&quot;1533&quot; data-end=&quot;1553&quot;&gt;安排初階人員練習&lt;br&gt;適度監督&lt;/td&gt;&lt;/tr&gt;&lt;tr data-start=&quot;1554&quot; data-end=&quot;1659&quot;&gt;&lt;td class=&quot;max-w-[calc(var(--thread-content-max-width)*2/3)]&quot; data-start=&quot;1554&quot; data-end=&quot;1576&quot;&gt;&lt;strong data-start=&quot;1556&quot; data-end=&quot;1564&quot;&gt;第四象限&lt;/strong&gt;&lt;br&gt;不緊急也不重要&lt;/td&gt;&lt;td class=&quot;max-w-[calc(var(--thread-content-max-width)*2/3)]&quot; data-start=&quot;1576&quot; data-end=&quot;1603&quot;&gt;避免資源浪費&lt;/td&gt;&lt;td class=&quot;max-w-[calc(var(--thread-content-max-width)*2/3)]&quot; data-start=&quot;1603&quot; data-end=&quot;1635&quot;&gt;- 非核心功能的過度優化&lt;br&gt;- 無效會議、重複勞動流程&lt;/td&gt;&lt;td class=&quot;max-w-[calc(var(--thread-content-max-width)*2/3)]&quot; data-start=&quot;1635&quot; data-end=&quot;1659&quot;&gt;盡量精簡或取消&lt;br&gt;資源集中在重點目標&lt;/td&gt;&lt;/tr&gt;&lt;/tbody&gt;&lt;/table&gt;&lt;/div&gt;&lt;/div&gt;" id="fAezpIUFlMQ5wlY4UxWV-26">
          <mxCell style="text;whiteSpace=wrap;html=1;" vertex="1" parent="1">
            <mxGeometry x="80" y="1650" width="560" height="340" as="geometry" />
          </mxCell>
        </UserObject>
        <UserObject label="&lt;h1 data-start=&quot;152&quot; data-end=&quot;183&quot; class=&quot;&quot;&gt;軟體工程師成長技能 × 艾森豪矩陣（硬實力＋軟實力合併版）&lt;/h1&gt;&#xa;&lt;div class=&quot;group pointer-events-none relative flex justify-center *:pointer-events-auto&quot;&gt;&lt;span class=&quot;pointer-events-none absolute start-full top-4 z-10 hidden h-full w-fit ps-2 md:block&quot; data-state=&quot;closed&quot;&gt;&lt;button class=&quot;hover:bg-token-main-surface-secondary text-token-text-secondary pointer-events-auto rounded-lg px-1 py-1 opacity-0 transition-opacity duration-200 group-focus-within:opacity-100 group-hover:opacity-100&quot;&gt;&lt;svg width=&quot;24&quot; height=&quot;24&quot; viewBox=&quot;0 0 24 24&quot; fill=&quot;none&quot; xmlns=&quot;http://www.w3.org/2000/svg&quot; class=&quot;icon-md-heavy&quot;&gt;&lt;path fill-rule=&quot;evenodd&quot; clip-rule=&quot;evenodd&quot; d=&quot;M7 5C7 3.34315 8.34315 2 10 2H19C20.6569 2 22 3.34315 22 5V14C22 15.6569 20.6569 17 19 17H17V19C17 20.6569 15.6569 22 14 22H5C3.34315 22 2 20.6569 2 19V10C2 8.34315 3.34315 7 5 7H7V5ZM9 7H14C15.6569 7 17 8.34315 17 10V15H19C19.5523 15 20 14.5523 20 14V5C20 4.44772 19.5523 4 19 4H10C9.44772 4 9 4.44772 9 5V7ZM5 9C4.44772 9 4 9.44772 4 10V19C4 19.5523 4.44772 20 5 20H14C14.5523 20 15 19.5523 15 19V10C15 9.44772 14.5523 9 14 9H5Z&quot; fill=&quot;currentColor&quot;&gt;&lt;/path&gt;&lt;/svg&gt;&lt;/button&gt;&lt;/span&gt;&lt;div class=&quot;tableContainer horzScrollShadows relative&quot;&gt;&lt;table class=&quot;min-w-full&quot; data-start=&quot;185&quot; data-end=&quot;1060&quot;&gt;&lt;thead data-start=&quot;185&quot; data-end=&quot;212&quot;&gt;&lt;tr data-start=&quot;185&quot; data-end=&quot;212&quot;&gt;&lt;th data-start=&quot;185&quot; data-end=&quot;190&quot;&gt;類型&lt;/th&gt;&lt;th data-start=&quot;190&quot; data-end=&quot;195&quot;&gt;定義&lt;/th&gt;&lt;th data-start=&quot;195&quot; data-end=&quot;204&quot;&gt;技能項目列舉&lt;/th&gt;&lt;th data-start=&quot;204&quot; data-end=&quot;212&quot;&gt;行動建議&lt;/th&gt;&lt;/tr&gt;&lt;/thead&gt;&lt;tbody data-start=&quot;235&quot; data-end=&quot;1060&quot;&gt;&lt;tr data-start=&quot;235&quot; data-end=&quot;427&quot;&gt;&lt;td class=&quot;max-w-[calc(var(--thread-content-max-width)*2/3)]&quot; data-start=&quot;235&quot; data-end=&quot;255&quot;&gt;&lt;strong data-start=&quot;237&quot; data-end=&quot;245&quot;&gt;第一象限&lt;/strong&gt;&lt;br&gt;緊急且重要&lt;/td&gt;&lt;td class=&quot;max-w-[calc(var(--thread-content-max-width)*2/3)]&quot; data-start=&quot;255&quot; data-end=&quot;272&quot;&gt;立即需要，直接影響交付與生存&lt;/td&gt;&lt;td class=&quot;max-w-[calc(var(--thread-content-max-width)*2/3)] min-w-[calc(var(--thread-content-max-width)/2)]&quot; data-start=&quot;272&quot; data-end=&quot;384&quot;&gt;- 線上故障排查與問題快速解決&lt;br&gt;- 熟練使用當前專案技術棧（語言、框架、工具）&lt;br&gt;- 基本 CI/CD 流程操作、部署回滾技能&lt;br&gt;- 緊急溝通協調能力（橫向/跨部門同步）&lt;br&gt;- 壓力管理與臨場反應能力&lt;/td&gt;&lt;td class=&quot;max-w-[calc(var(--thread-content-max-width)*2/3)]&quot; data-start=&quot;384&quot; data-end=&quot;427&quot;&gt;快速補齊，確保能即時應對專案與線上任務，建立標準作業流程（SOP）與演練機制。&lt;/td&gt;&lt;/tr&gt;&lt;tr data-start=&quot;428&quot; data-end=&quot;696&quot;&gt;&lt;td class=&quot;max-w-[calc(var(--thread-content-max-width)*2/3)]&quot; data-start=&quot;428&quot; data-end=&quot;449&quot;&gt;&lt;strong data-start=&quot;430&quot; data-end=&quot;438&quot;&gt;第二象限&lt;/strong&gt;&lt;br&gt;重要但不緊急&lt;/td&gt;&lt;td class=&quot;max-w-[calc(var(--thread-content-max-width)*2/3)]&quot; data-start=&quot;449&quot; data-end=&quot;465&quot;&gt;決定未來成長高度的關鍵基礎&lt;/td&gt;&lt;td class=&quot;max-w-[calc(var(--thread-content-max-width)*2/3)] min-w-[calc(var(--thread-content-max-width)/2)]&quot; data-start=&quot;465&quot; data-end=&quot;655&quot;&gt;- 系統設計能力（架構設計、模組化、可擴展性）&lt;br&gt;- 資料結構與演算法思維&lt;br&gt;- 高效能資料庫與儲存設計&lt;br&gt;- 雲端技術（AWS, GCP, Azure 基礎架構理解）&lt;br&gt;- 需求理解與抽象建模能力&lt;br&gt;- 領導力與技術影響力（帶領小專案、技術推廣）&lt;br&gt;- 問題分析與系統性解決能力&lt;br&gt;- 跨部門溝通與需求橋接能力&lt;br&gt;- 反思與自我迭代成長習慣&lt;/td&gt;&lt;td class=&quot;max-w-[calc(var(--thread-content-max-width)*2/3)]&quot; data-start=&quot;655&quot; data-end=&quot;696&quot;&gt;設定長期學習目標，定期投入深度學習與實作，培養「帶人」與「提案推進」能力。&lt;/td&gt;&lt;/tr&gt;&lt;tr data-start=&quot;697&quot; data-end=&quot;874&quot;&gt;&lt;td class=&quot;max-w-[calc(var(--thread-content-max-width)*2/3)]&quot; data-start=&quot;697&quot; data-end=&quot;718&quot;&gt;&lt;strong data-start=&quot;699&quot; data-end=&quot;707&quot;&gt;第三象限&lt;/strong&gt;&lt;br&gt;緊急但不重要&lt;/td&gt;&lt;td class=&quot;max-w-[calc(var(--thread-content-max-width)*2/3)]&quot; data-start=&quot;718&quot; data-end=&quot;734&quot;&gt;短期應付事項，影響成長有限&lt;/td&gt;&lt;td class=&quot;max-w-[calc(var(--thread-content-max-width)*2/3)] min-w-[calc(var(--thread-content-max-width)/2)]&quot; data-start=&quot;734&quot; data-end=&quot;836&quot;&gt;- 快速學習短期流行技術（如新 UI 套件）&lt;br&gt;- 支援內部小專案、快速開發小功能&lt;br&gt;- 參與短期專案支援（救火式任務）&lt;br&gt;- 應急簡報與快速文件整理&lt;br&gt;- 行政協調、小型跨部門支援&lt;/td&gt;&lt;td class=&quot;max-w-[calc(var(--thread-content-max-width)*2/3)]&quot; data-start=&quot;836&quot; data-end=&quot;874&quot;&gt;最小可行投入（MVP思維），避免過度延伸，保持重心在第一、第二象限。&lt;/td&gt;&lt;/tr&gt;&lt;tr data-start=&quot;875&quot; data-end=&quot;1060&quot;&gt;&lt;td class=&quot;max-w-[calc(var(--thread-content-max-width)*2/3)]&quot; data-start=&quot;875&quot; data-end=&quot;897&quot;&gt;&lt;strong data-start=&quot;877&quot; data-end=&quot;885&quot;&gt;第四象限&lt;/strong&gt;&lt;br&gt;不緊急也不重要&lt;/td&gt;&lt;td class=&quot;max-w-[calc(var(--thread-content-max-width)*2/3)]&quot; data-start=&quot;897&quot; data-end=&quot;914&quot;&gt;對職涯發展無明顯幫助，應避免&lt;/td&gt;&lt;td class=&quot;max-w-[calc(var(--thread-content-max-width)*2/3)] min-w-[calc(var(--thread-content-max-width)/2)]&quot; data-start=&quot;914&quot; data-end=&quot;1021&quot;&gt;- 過度投入冷門技術無實際應用情境&lt;br&gt;- 追逐短期流行技術潮流（無需求情境下）&lt;br&gt;- 為了證照而證照（無職場加分效果）&lt;br&gt;- 無意義社交與過多不聚焦活動&lt;br&gt;- 浮誇型自我行銷，缺乏實際專業累積&lt;/td&gt;&lt;td class=&quot;max-w-[calc(var(--thread-content-max-width)*2/3)]&quot; data-start=&quot;1021&quot; data-end=&quot;1060&quot;&gt;刪除或限縮此類活動時間，將資源集中在高價值任務上，並建立時間管理紀律。&lt;/td&gt;&lt;/tr&gt;&lt;/tbody&gt;&lt;/table&gt;&lt;/div&gt;&lt;/div&gt;" link="&lt;h1 data-start=&quot;152&quot; data-end=&quot;183&quot; class=&quot;&quot;&gt;軟體工程師成長技能 × 艾森豪矩陣（硬實力＋軟實力合併版）&lt;/h1&gt;&#xa;&lt;div class=&quot;group pointer-events-none relative flex justify-center *:pointer-events-auto&quot;&gt;&lt;span class=&quot;pointer-events-none absolute start-full top-4 z-10 hidden h-full w-fit ps-2 md:block&quot; data-state=&quot;closed&quot;&gt;&lt;button class=&quot;hover:bg-token-main-surface-secondary text-token-text-secondary pointer-events-auto rounded-lg px-1 py-1 opacity-0 transition-opacity duration-200 group-focus-within:opacity-100 group-hover:opacity-100&quot;&gt;&lt;svg width=&quot;24&quot; height=&quot;24&quot; viewBox=&quot;0 0 24 24&quot; fill=&quot;none&quot; xmlns=&quot;http://www.w3.org/2000/svg&quot; class=&quot;icon-md-heavy&quot;&gt;&lt;path fill-rule=&quot;evenodd&quot; clip-rule=&quot;evenodd&quot; d=&quot;M7 5C7 3.34315 8.34315 2 10 2H19C20.6569 2 22 3.34315 22 5V14C22 15.6569 20.6569 17 19 17H17V19C17 20.6569 15.6569 22 14 22H5C3.34315 22 2 20.6569 2 19V10C2 8.34315 3.34315 7 5 7H7V5ZM9 7H14C15.6569 7 17 8.34315 17 10V15H19C19.5523 15 20 14.5523 20 14V5C20 4.44772 19.5523 4 19 4H10C9.44772 4 9 4.44772 9 5V7ZM5 9C4.44772 9 4 9.44772 4 10V19C4 19.5523 4.44772 20 5 20H14C14.5523 20 15 19.5523 15 19V10C15 9.44772 14.5523 9 14 9H5Z&quot; fill=&quot;currentColor&quot;&gt;&lt;/path&gt;&lt;/svg&gt;&lt;/button&gt;&lt;/span&gt;&lt;div class=&quot;tableContainer horzScrollShadows relative&quot;&gt;&lt;table class=&quot;min-w-full&quot; data-start=&quot;185&quot; data-end=&quot;1060&quot;&gt;&lt;thead data-start=&quot;185&quot; data-end=&quot;212&quot;&gt;&lt;tr data-start=&quot;185&quot; data-end=&quot;212&quot;&gt;&lt;th data-start=&quot;185&quot; data-end=&quot;190&quot;&gt;類型&lt;/th&gt;&lt;th data-start=&quot;190&quot; data-end=&quot;195&quot;&gt;定義&lt;/th&gt;&lt;th data-start=&quot;195&quot; data-end=&quot;204&quot;&gt;技能項目列舉&lt;/th&gt;&lt;th data-start=&quot;204&quot; data-end=&quot;212&quot;&gt;行動建議&lt;/th&gt;&lt;/tr&gt;&lt;/thead&gt;&lt;tbody data-start=&quot;235&quot; data-end=&quot;1060&quot;&gt;&lt;tr data-start=&quot;235&quot; data-end=&quot;427&quot;&gt;&lt;td class=&quot;max-w-[calc(var(--thread-content-max-width)*2/3)]&quot; data-start=&quot;235&quot; data-end=&quot;255&quot;&gt;&lt;strong data-start=&quot;237&quot; data-end=&quot;245&quot;&gt;第一象限&lt;/strong&gt;&lt;br&gt;緊急且重要&lt;/td&gt;&lt;td class=&quot;max-w-[calc(var(--thread-content-max-width)*2/3)]&quot; data-start=&quot;255&quot; data-end=&quot;272&quot;&gt;立即需要，直接影響交付與生存&lt;/td&gt;&lt;td class=&quot;max-w-[calc(var(--thread-content-max-width)*2/3)] min-w-[calc(var(--thread-content-max-width)/2)]&quot; data-start=&quot;272&quot; data-end=&quot;384&quot;&gt;- 線上故障排查與問題快速解決&lt;br&gt;- 熟練使用當前專案技術棧（語言、框架、工具）&lt;br&gt;- 基本 CI/CD 流程操作、部署回滾技能&lt;br&gt;- 緊急溝通協調能力（橫向/跨部門同步）&lt;br&gt;- 壓力管理與臨場反應能力&lt;/td&gt;&lt;td class=&quot;max-w-[calc(var(--thread-content-max-width)*2/3)]&quot; data-start=&quot;384&quot; data-end=&quot;427&quot;&gt;快速補齊，確保能即時應對專案與線上任務，建立標準作業流程（SOP）與演練機制。&lt;/td&gt;&lt;/tr&gt;&lt;tr data-start=&quot;428&quot; data-end=&quot;696&quot;&gt;&lt;td class=&quot;max-w-[calc(var(--thread-content-max-width)*2/3)]&quot; data-start=&quot;428&quot; data-end=&quot;449&quot;&gt;&lt;strong data-start=&quot;430&quot; data-end=&quot;438&quot;&gt;第二象限&lt;/strong&gt;&lt;br&gt;重要但不緊急&lt;/td&gt;&lt;td class=&quot;max-w-[calc(var(--thread-content-max-width)*2/3)]&quot; data-start=&quot;449&quot; data-end=&quot;465&quot;&gt;決定未來成長高度的關鍵基礎&lt;/td&gt;&lt;td class=&quot;max-w-[calc(var(--thread-content-max-width)*2/3)] min-w-[calc(var(--thread-content-max-width)/2)]&quot; data-start=&quot;465&quot; data-end=&quot;655&quot;&gt;- 系統設計能力（架構設計、模組化、可擴展性）&lt;br&gt;- 資料結構與演算法思維&lt;br&gt;- 高效能資料庫與儲存設計&lt;br&gt;- 雲端技術（AWS, GCP, Azure 基礎架構理解）&lt;br&gt;- 需求理解與抽象建模能力&lt;br&gt;- 領導力與技術影響力（帶領小專案、技術推廣）&lt;br&gt;- 問題分析與系統性解決能力&lt;br&gt;- 跨部門溝通與需求橋接能力&lt;br&gt;- 反思與自我迭代成長習慣&lt;/td&gt;&lt;td class=&quot;max-w-[calc(var(--thread-content-max-width)*2/3)]&quot; data-start=&quot;655&quot; data-end=&quot;696&quot;&gt;設定長期學習目標，定期投入深度學習與實作，培養「帶人」與「提案推進」能力。&lt;/td&gt;&lt;/tr&gt;&lt;tr data-start=&quot;697&quot; data-end=&quot;874&quot;&gt;&lt;td class=&quot;max-w-[calc(var(--thread-content-max-width)*2/3)]&quot; data-start=&quot;697&quot; data-end=&quot;718&quot;&gt;&lt;strong data-start=&quot;699&quot; data-end=&quot;707&quot;&gt;第三象限&lt;/strong&gt;&lt;br&gt;緊急但不重要&lt;/td&gt;&lt;td class=&quot;max-w-[calc(var(--thread-content-max-width)*2/3)]&quot; data-start=&quot;718&quot; data-end=&quot;734&quot;&gt;短期應付事項，影響成長有限&lt;/td&gt;&lt;td class=&quot;max-w-[calc(var(--thread-content-max-width)*2/3)] min-w-[calc(var(--thread-content-max-width)/2)]&quot; data-start=&quot;734&quot; data-end=&quot;836&quot;&gt;- 快速學習短期流行技術（如新 UI 套件）&lt;br&gt;- 支援內部小專案、快速開發小功能&lt;br&gt;- 參與短期專案支援（救火式任務）&lt;br&gt;- 應急簡報與快速文件整理&lt;br&gt;- 行政協調、小型跨部門支援&lt;/td&gt;&lt;td class=&quot;max-w-[calc(var(--thread-content-max-width)*2/3)]&quot; data-start=&quot;836&quot; data-end=&quot;874&quot;&gt;最小可行投入（MVP思維），避免過度延伸，保持重心在第一、第二象限。&lt;/td&gt;&lt;/tr&gt;&lt;tr data-start=&quot;875&quot; data-end=&quot;1060&quot;&gt;&lt;td class=&quot;max-w-[calc(var(--thread-content-max-width)*2/3)]&quot; data-start=&quot;875&quot; data-end=&quot;897&quot;&gt;&lt;strong data-start=&quot;877&quot; data-end=&quot;885&quot;&gt;第四象限&lt;/strong&gt;&lt;br&gt;不緊急也不重要&lt;/td&gt;&lt;td class=&quot;max-w-[calc(var(--thread-content-max-width)*2/3)]&quot; data-start=&quot;897&quot; data-end=&quot;914&quot;&gt;對職涯發展無明顯幫助，應避免&lt;/td&gt;&lt;td class=&quot;max-w-[calc(var(--thread-content-max-width)*2/3)] min-w-[calc(var(--thread-content-max-width)/2)]&quot; data-start=&quot;914&quot; data-end=&quot;1021&quot;&gt;- 過度投入冷門技術無實際應用情境&lt;br&gt;- 追逐短期流行技術潮流（無需求情境下）&lt;br&gt;- 為了證照而證照（無職場加分效果）&lt;br&gt;- 無意義社交與過多不聚焦活動&lt;br&gt;- 浮誇型自我行銷，缺乏實際專業累積&lt;/td&gt;&lt;td class=&quot;max-w-[calc(var(--thread-content-max-width)*2/3)]&quot; data-start=&quot;1021&quot; data-end=&quot;1060&quot;&gt;刪除或限縮此類活動時間，將資源集中在高價值任務上，並建立時間管理紀律。&lt;/td&gt;&lt;/tr&gt;&lt;/tbody&gt;&lt;/table&gt;&lt;/div&gt;&lt;/div&gt;" id="fAezpIUFlMQ5wlY4UxWV-27">
          <mxCell style="text;whiteSpace=wrap;html=1;" vertex="1" parent="1">
            <mxGeometry x="100" y="1970" width="640" height="800" as="geometry" />
          </mxCell>
        </UserObject>
        <UserObject label="&lt;h1 data-start=&quot;94&quot; data-end=&quot;115&quot; class=&quot;&quot;&gt;軟體團隊培養 × 艾森豪矩陣（正式版）&lt;/h1&gt;&#xa;&lt;div class=&quot;group pointer-events-none relative flex justify-center *:pointer-events-auto&quot;&gt;&lt;span class=&quot;pointer-events-none absolute start-full top-4 z-10 hidden h-full w-fit ps-2 md:block&quot; data-state=&quot;closed&quot;&gt;&lt;button class=&quot;hover:bg-token-main-surface-secondary text-token-text-secondary pointer-events-auto rounded-lg px-1 py-1 opacity-0 transition-opacity duration-200 group-focus-within:opacity-100 group-hover:opacity-100&quot;&gt;&lt;svg width=&quot;24&quot; height=&quot;24&quot; viewBox=&quot;0 0 24 24&quot; fill=&quot;none&quot; xmlns=&quot;http://www.w3.org/2000/svg&quot; class=&quot;icon-md-heavy&quot;&gt;&lt;path fill-rule=&quot;evenodd&quot; clip-rule=&quot;evenodd&quot; d=&quot;M7 5C7 3.34315 8.34315 2 10 2H19C20.6569 2 22 3.34315 22 5V14C22 15.6569 20.6569 17 19 17H17V19C17 20.6569 15.6569 22 14 22H5C3.34315 22 2 20.6569 2 19V10C2 8.34315 3.34315 7 5 7H7V5ZM9 7H14C15.6569 7 17 8.34315 17 10V15H19C19.5523 15 20 14.5523 20 14V5C20 4.44772 19.5523 4 19 4H10C9.44772 4 9 4.44772 9 5V7ZM5 9C4.44772 9 4 9.44772 4 10V19C4 19.5523 4.44772 20 5 20H14C14.5523 20 15 19.5523 15 19V10C15 9.44772 14.5523 9 14 9H5Z&quot; fill=&quot;currentColor&quot;&gt;&lt;/path&gt;&lt;/svg&gt;&lt;/button&gt;&lt;/span&gt;&lt;div class=&quot;tableContainer horzScrollShadows relative&quot;&gt;&lt;table class=&quot;min-w-full&quot; data-start=&quot;117&quot; data-end=&quot;1104&quot;&gt;&lt;thead data-start=&quot;117&quot; data-end=&quot;157&quot;&gt;&lt;tr data-start=&quot;117&quot; data-end=&quot;157&quot;&gt;&lt;th data-start=&quot;117&quot; data-end=&quot;122&quot;&gt;類型&lt;/th&gt;&lt;th data-start=&quot;122&quot; data-end=&quot;127&quot;&gt;定義&lt;/th&gt;&lt;th data-start=&quot;127&quot; data-end=&quot;149&quot;&gt;團隊培養重點（硬實力＋軟實力合併列舉）&lt;/th&gt;&lt;th data-start=&quot;149&quot; data-end=&quot;157&quot;&gt;行動建議&lt;/th&gt;&lt;/tr&gt;&lt;/thead&gt;&lt;tbody data-start=&quot;180&quot; data-end=&quot;1104&quot;&gt;&lt;tr data-start=&quot;180&quot; data-end=&quot;400&quot;&gt;&lt;td class=&quot;max-w-[calc(var(--thread-content-max-width)*2/3)]&quot; data-start=&quot;180&quot; data-end=&quot;200&quot;&gt;&lt;strong data-start=&quot;182&quot; data-end=&quot;190&quot;&gt;第一象限&lt;/strong&gt;&lt;br&gt;緊急且重要&lt;/td&gt;&lt;td class=&quot;max-w-[calc(var(--thread-content-max-width)*2/3)]&quot; data-start=&quot;200&quot; data-end=&quot;219&quot;&gt;保持團隊運作穩定與危機應對的能力&lt;/td&gt;&lt;td class=&quot;max-w-[calc(var(--thread-content-max-width)*2/3)] min-w-[calc(var(--thread-content-max-width)/2)]&quot; data-start=&quot;219&quot; data-end=&quot;356&quot;&gt;- 線上故障緊急處理能力（Incident Management）&lt;br&gt;- 快速故障回復（Rollback / Hotfix 流程）&lt;br&gt;- 因應變更的快速溝通與協作&lt;br&gt;- 關鍵專案交付能力（Delivery on Time）&lt;br&gt;- 團隊壓力管理與心理支持&lt;/td&gt;&lt;td class=&quot;max-w-[calc(var(--thread-content-max-width)*2/3)]&quot; data-start=&quot;356&quot; data-end=&quot;400&quot;&gt;必須標準化訓練（如SOP建立）、定期演練（如DR Drill）、培養快速反應文化&lt;/td&gt;&lt;/tr&gt;&lt;tr data-start=&quot;401&quot; data-end=&quot;772&quot;&gt;&lt;td class=&quot;max-w-[calc(var(--thread-content-max-width)*2/3)]&quot; data-start=&quot;401&quot; data-end=&quot;422&quot;&gt;&lt;strong data-start=&quot;403&quot; data-end=&quot;411&quot;&gt;第二象限&lt;/strong&gt;&lt;br&gt;重要但不緊急&lt;/td&gt;&lt;td class=&quot;max-w-[calc(var(--thread-content-max-width)*2/3)]&quot; data-start=&quot;422&quot; data-end=&quot;442&quot;&gt;建立中長期核心競爭力與可持續成長力&lt;/td&gt;&lt;td class=&quot;max-w-[calc(var(--thread-content-max-width)*2/3)] min-w-[calc(var(--thread-content-max-width)/2)]&quot; data-start=&quot;442&quot; data-end=&quot;735&quot;&gt;- 架構設計與系統性思考訓練（Architecture Reviews, Design Docs）&lt;br&gt;- 程式碼品質與技術深度提升（Code Review, Refactor Culture）&lt;br&gt;- 工程流程優化（CI/CD最佳化、自動化測試）&lt;br&gt;- 技術分享與內部知識傳承（Tech Talks, Internal Wiki）&lt;br&gt;- 新人培訓與Mentorship制度&lt;br&gt;- 領導力、專案管理能力培養（Technical Leads, Scrum Master）&lt;br&gt;- 建立良好跨部門溝通橋樑（Tech-Product-Design Alignment）&lt;/td&gt;&lt;td class=&quot;max-w-[calc(var(--thread-content-max-width)*2/3)]&quot; data-start=&quot;735&quot; data-end=&quot;772&quot;&gt;制定成長計畫、技能矩陣，納入績效考核與OKR，並定期追蹤培養成效。&lt;/td&gt;&lt;/tr&gt;&lt;tr data-start=&quot;773&quot; data-end=&quot;945&quot;&gt;&lt;td class=&quot;max-w-[calc(var(--thread-content-max-width)*2/3)]&quot; data-start=&quot;773&quot; data-end=&quot;794&quot;&gt;&lt;strong data-start=&quot;775&quot; data-end=&quot;783&quot;&gt;第三象限&lt;/strong&gt;&lt;br&gt;緊急但不重要&lt;/td&gt;&lt;td class=&quot;max-w-[calc(var(--thread-content-max-width)*2/3)]&quot; data-start=&quot;794&quot; data-end=&quot;813&quot;&gt;支援型任務或非主線工作的練兵機會&lt;/td&gt;&lt;td class=&quot;max-w-[calc(var(--thread-content-max-width)*2/3)] min-w-[calc(var(--thread-content-max-width)/2)]&quot; data-start=&quot;813&quot; data-end=&quot;905&quot;&gt;- 快速支援短期專案需求&lt;br&gt;- 小功能開發與 Bug Fix 練兵&lt;br&gt;- 內部支援性任務（資料整理、臨時報表）&lt;br&gt;- 對外短期活動支援（Hackathon、小型比賽）&lt;/td&gt;&lt;td class=&quot;max-w-[calc(var(--thread-content-max-width)*2/3)]&quot; data-start=&quot;905&quot; data-end=&quot;945&quot;&gt;安排初階成員實戰，提升實戰經驗，但要控制比例，避免團隊偏離主要成長目標。&lt;/td&gt;&lt;/tr&gt;&lt;tr data-start=&quot;946&quot; data-end=&quot;1104&quot;&gt;&lt;td class=&quot;max-w-[calc(var(--thread-content-max-width)*2/3)]&quot; data-start=&quot;946&quot; data-end=&quot;968&quot;&gt;&lt;strong data-start=&quot;948&quot; data-end=&quot;956&quot;&gt;第四象限&lt;/strong&gt;&lt;br&gt;不緊急也不重要&lt;/td&gt;&lt;td class=&quot;max-w-[calc(var(--thread-content-max-width)*2/3)]&quot; data-start=&quot;968&quot; data-end=&quot;989&quot;&gt;無效耗損資源的活動，應盡量減少或避免&lt;/td&gt;&lt;td class=&quot;max-w-[calc(var(--thread-content-max-width)*2/3)] min-w-[calc(var(--thread-content-max-width)/3)]&quot; data-start=&quot;989&quot; data-end=&quot;1063&quot;&gt;- 追逐無實際商業價值的技術潮流&lt;br&gt;- 參與無焦點、低產出的會議&lt;br&gt;- 過多無關的社群/非技術活動&lt;br&gt;- 無效或冗長的內部流程作業&lt;/td&gt;&lt;td class=&quot;max-w-[calc(var(--thread-content-max-width)*2/3)]&quot; data-start=&quot;1063&quot; data-end=&quot;1104&quot;&gt;定期檢視並優化流程，清理無效任務與會議，讓團隊資源集中在真正成長與交付上。&lt;/td&gt;&lt;/tr&gt;&lt;/tbody&gt;&lt;/table&gt;&lt;/div&gt;&lt;/div&gt;&#xa;&lt;hr data-start=&quot;1106&quot; data-end=&quot;1109&quot; class=&quot;&quot;&gt;&#xa;&lt;h1 data-start=&quot;1111&quot; data-end=&quot;1124&quot; class=&quot;&quot;&gt;小結（軟體團隊培養版）&lt;/h1&gt;&#xa;&lt;div class=&quot;group pointer-events-none relative flex justify-center *:pointer-events-auto&quot;&gt;&lt;span class=&quot;pointer-events-none absolute start-full top-4 z-10 hidden h-full w-fit ps-2 md:block&quot; data-state=&quot;closed&quot;&gt;&lt;button class=&quot;hover:bg-token-main-surface-secondary text-token-text-secondary pointer-events-auto rounded-lg px-1 py-1 opacity-0 transition-opacity duration-200 group-focus-within:opacity-100 group-hover:opacity-100&quot;&gt;&lt;svg width=&quot;24&quot; height=&quot;24&quot; viewBox=&quot;0 0 24 24&quot; fill=&quot;none&quot; xmlns=&quot;http://www.w3.org/2000/svg&quot; class=&quot;icon-md-heavy&quot;&gt;&lt;path fill-rule=&quot;evenodd&quot; clip-rule=&quot;evenodd&quot; d=&quot;M7 5C7 3.34315 8.34315 2 10 2H19C20.6569 2 22 3.34315 22 5V14C22 15.6569 20.6569 17 19 17H17V19C17 20.6569 15.6569 22 14 22H5C3.34315 22 2 20.6569 2 19V10C2 8.34315 3.34315 7 5 7H7V5ZM9 7H14C15.6569 7 17 8.34315 17 10V15H19C19.5523 15 20 14.5523 20 14V5C20 4.44772 19.5523 4 19 4H10C9.44772 4 9 4.44772 9 5V7ZM5 9C4.44772 9 4 9.44772 4 10V19C4 19.5523 4.44772 20 5 20H14C14.5523 20 15 19.5523 15 19V10C15 9.44772 14.5523 9 14 9H5Z&quot; fill=&quot;currentColor&quot;&gt;&lt;/path&gt;&lt;/svg&gt;&lt;/button&gt;&lt;/span&gt;&lt;div class=&quot;tableContainer horzScrollShadows relative&quot;&gt;&lt;table class=&quot;min-w-full&quot; data-start=&quot;1126&quot; data-end=&quot;1309&quot;&gt;&lt;thead data-start=&quot;1126&quot; data-end=&quot;1137&quot;&gt;&lt;tr data-start=&quot;1126&quot; data-end=&quot;1137&quot;&gt;&lt;th data-start=&quot;1126&quot; data-end=&quot;1131&quot;&gt;重點&lt;/th&gt;&lt;th data-start=&quot;1131&quot; data-end=&quot;1137&quot;&gt;說明&lt;/th&gt;&lt;/tr&gt;&lt;/thead&gt;&lt;tbody data-start=&quot;1148&quot; data-end=&quot;1309&quot;&gt;&lt;tr data-start=&quot;1148&quot; data-end=&quot;1185&quot;&gt;&lt;td class=&quot;max-w-[calc(var(--thread-content-max-width)*2/3)]&quot; data-start=&quot;1148&quot; data-end=&quot;1159&quot;&gt;&lt;strong data-start=&quot;1150&quot; data-end=&quot;1158&quot;&gt;第一象限&lt;/strong&gt;&lt;/td&gt;&lt;td class=&quot;max-w-[calc(var(--thread-content-max-width)*2/3)]&quot; data-start=&quot;1159&quot; data-end=&quot;1185&quot;&gt;維持「基本穩定運作能力」。不能倒，不能失控。&lt;/td&gt;&lt;/tr&gt;&lt;tr data-start=&quot;1186&quot; data-end=&quot;1229&quot;&gt;&lt;td class=&quot;max-w-[calc(var(--thread-content-max-width)*2/3)]&quot; data-start=&quot;1186&quot; data-end=&quot;1197&quot;&gt;&lt;strong data-start=&quot;1188&quot; data-end=&quot;1196&quot;&gt;第二象限&lt;/strong&gt;&lt;/td&gt;&lt;td class=&quot;max-w-[calc(var(--thread-content-max-width)*2/3)]&quot; data-start=&quot;1197&quot; data-end=&quot;1229&quot;&gt;培養「可持續成長與領導力」。技術深度與組織韌性從這裡來。&lt;/td&gt;&lt;/tr&gt;&lt;tr data-start=&quot;1230&quot; data-end=&quot;1269&quot;&gt;&lt;td class=&quot;max-w-[calc(var(--thread-content-max-width)*2/3)]&quot; data-start=&quot;1230&quot; data-end=&quot;1241&quot;&gt;&lt;strong data-start=&quot;1232&quot; data-end=&quot;1240&quot;&gt;第三象限&lt;/strong&gt;&lt;/td&gt;&lt;td class=&quot;max-w-[calc(var(--thread-content-max-width)*2/3)]&quot; data-start=&quot;1241&quot; data-end=&quot;1269&quot;&gt;「練兵場」。讓新人成長，但避免佔用過多核心資源。&lt;/td&gt;&lt;/tr&gt;&lt;tr data-start=&quot;1270&quot; data-end=&quot;1309&quot;&gt;&lt;td class=&quot;max-w-[calc(var(--thread-content-max-width)*2/3)]&quot; data-start=&quot;1270&quot; data-end=&quot;1281&quot;&gt;&lt;strong data-start=&quot;1272&quot; data-end=&quot;1280&quot;&gt;第四象限&lt;/strong&gt;&lt;/td&gt;&lt;td class=&quot;max-w-[calc(var(--thread-content-max-width)*2/3)]&quot; data-start=&quot;1281&quot; data-end=&quot;1309&quot;&gt;「定期瘦身」。消除資源浪費，保持團隊敏捷有效率。&lt;/td&gt;&lt;/tr&gt;&lt;/tbody&gt;&lt;/table&gt;&lt;/div&gt;&lt;/div&gt;" link="&lt;h1 data-start=&quot;94&quot; data-end=&quot;115&quot; class=&quot;&quot;&gt;軟體團隊培養 × 艾森豪矩陣（正式版）&lt;/h1&gt;&#xa;&lt;div class=&quot;group pointer-events-none relative flex justify-center *:pointer-events-auto&quot;&gt;&lt;span class=&quot;pointer-events-none absolute start-full top-4 z-10 hidden h-full w-fit ps-2 md:block&quot; data-state=&quot;closed&quot;&gt;&lt;button class=&quot;hover:bg-token-main-surface-secondary text-token-text-secondary pointer-events-auto rounded-lg px-1 py-1 opacity-0 transition-opacity duration-200 group-focus-within:opacity-100 group-hover:opacity-100&quot;&gt;&lt;svg width=&quot;24&quot; height=&quot;24&quot; viewBox=&quot;0 0 24 24&quot; fill=&quot;none&quot; xmlns=&quot;http://www.w3.org/2000/svg&quot; class=&quot;icon-md-heavy&quot;&gt;&lt;path fill-rule=&quot;evenodd&quot; clip-rule=&quot;evenodd&quot; d=&quot;M7 5C7 3.34315 8.34315 2 10 2H19C20.6569 2 22 3.34315 22 5V14C22 15.6569 20.6569 17 19 17H17V19C17 20.6569 15.6569 22 14 22H5C3.34315 22 2 20.6569 2 19V10C2 8.34315 3.34315 7 5 7H7V5ZM9 7H14C15.6569 7 17 8.34315 17 10V15H19C19.5523 15 20 14.5523 20 14V5C20 4.44772 19.5523 4 19 4H10C9.44772 4 9 4.44772 9 5V7ZM5 9C4.44772 9 4 9.44772 4 10V19C4 19.5523 4.44772 20 5 20H14C14.5523 20 15 19.5523 15 19V10C15 9.44772 14.5523 9 14 9H5Z&quot; fill=&quot;currentColor&quot;&gt;&lt;/path&gt;&lt;/svg&gt;&lt;/button&gt;&lt;/span&gt;&lt;div class=&quot;tableContainer horzScrollShadows relative&quot;&gt;&lt;table class=&quot;min-w-full&quot; data-start=&quot;117&quot; data-end=&quot;1104&quot;&gt;&lt;thead data-start=&quot;117&quot; data-end=&quot;157&quot;&gt;&lt;tr data-start=&quot;117&quot; data-end=&quot;157&quot;&gt;&lt;th data-start=&quot;117&quot; data-end=&quot;122&quot;&gt;類型&lt;/th&gt;&lt;th data-start=&quot;122&quot; data-end=&quot;127&quot;&gt;定義&lt;/th&gt;&lt;th data-start=&quot;127&quot; data-end=&quot;149&quot;&gt;團隊培養重點（硬實力＋軟實力合併列舉）&lt;/th&gt;&lt;th data-start=&quot;149&quot; data-end=&quot;157&quot;&gt;行動建議&lt;/th&gt;&lt;/tr&gt;&lt;/thead&gt;&lt;tbody data-start=&quot;180&quot; data-end=&quot;1104&quot;&gt;&lt;tr data-start=&quot;180&quot; data-end=&quot;400&quot;&gt;&lt;td class=&quot;max-w-[calc(var(--thread-content-max-width)*2/3)]&quot; data-start=&quot;180&quot; data-end=&quot;200&quot;&gt;&lt;strong data-start=&quot;182&quot; data-end=&quot;190&quot;&gt;第一象限&lt;/strong&gt;&lt;br&gt;緊急且重要&lt;/td&gt;&lt;td class=&quot;max-w-[calc(var(--thread-content-max-width)*2/3)]&quot; data-start=&quot;200&quot; data-end=&quot;219&quot;&gt;保持團隊運作穩定與危機應對的能力&lt;/td&gt;&lt;td class=&quot;max-w-[calc(var(--thread-content-max-width)*2/3)] min-w-[calc(var(--thread-content-max-width)/2)]&quot; data-start=&quot;219&quot; data-end=&quot;356&quot;&gt;- 線上故障緊急處理能力（Incident Management）&lt;br&gt;- 快速故障回復（Rollback / Hotfix 流程）&lt;br&gt;- 因應變更的快速溝通與協作&lt;br&gt;- 關鍵專案交付能力（Delivery on Time）&lt;br&gt;- 團隊壓力管理與心理支持&lt;/td&gt;&lt;td class=&quot;max-w-[calc(var(--thread-content-max-width)*2/3)]&quot; data-start=&quot;356&quot; data-end=&quot;400&quot;&gt;必須標準化訓練（如SOP建立）、定期演練（如DR Drill）、培養快速反應文化&lt;/td&gt;&lt;/tr&gt;&lt;tr data-start=&quot;401&quot; data-end=&quot;772&quot;&gt;&lt;td class=&quot;max-w-[calc(var(--thread-content-max-width)*2/3)]&quot; data-start=&quot;401&quot; data-end=&quot;422&quot;&gt;&lt;strong data-start=&quot;403&quot; data-end=&quot;411&quot;&gt;第二象限&lt;/strong&gt;&lt;br&gt;重要但不緊急&lt;/td&gt;&lt;td class=&quot;max-w-[calc(var(--thread-content-max-width)*2/3)]&quot; data-start=&quot;422&quot; data-end=&quot;442&quot;&gt;建立中長期核心競爭力與可持續成長力&lt;/td&gt;&lt;td class=&quot;max-w-[calc(var(--thread-content-max-width)*2/3)] min-w-[calc(var(--thread-content-max-width)/2)]&quot; data-start=&quot;442&quot; data-end=&quot;735&quot;&gt;- 架構設計與系統性思考訓練（Architecture Reviews, Design Docs）&lt;br&gt;- 程式碼品質與技術深度提升（Code Review, Refactor Culture）&lt;br&gt;- 工程流程優化（CI/CD最佳化、自動化測試）&lt;br&gt;- 技術分享與內部知識傳承（Tech Talks, Internal Wiki）&lt;br&gt;- 新人培訓與Mentorship制度&lt;br&gt;- 領導力、專案管理能力培養（Technical Leads, Scrum Master）&lt;br&gt;- 建立良好跨部門溝通橋樑（Tech-Product-Design Alignment）&lt;/td&gt;&lt;td class=&quot;max-w-[calc(var(--thread-content-max-width)*2/3)]&quot; data-start=&quot;735&quot; data-end=&quot;772&quot;&gt;制定成長計畫、技能矩陣，納入績效考核與OKR，並定期追蹤培養成效。&lt;/td&gt;&lt;/tr&gt;&lt;tr data-start=&quot;773&quot; data-end=&quot;945&quot;&gt;&lt;td class=&quot;max-w-[calc(var(--thread-content-max-width)*2/3)]&quot; data-start=&quot;773&quot; data-end=&quot;794&quot;&gt;&lt;strong data-start=&quot;775&quot; data-end=&quot;783&quot;&gt;第三象限&lt;/strong&gt;&lt;br&gt;緊急但不重要&lt;/td&gt;&lt;td class=&quot;max-w-[calc(var(--thread-content-max-width)*2/3)]&quot; data-start=&quot;794&quot; data-end=&quot;813&quot;&gt;支援型任務或非主線工作的練兵機會&lt;/td&gt;&lt;td class=&quot;max-w-[calc(var(--thread-content-max-width)*2/3)] min-w-[calc(var(--thread-content-max-width)/2)]&quot; data-start=&quot;813&quot; data-end=&quot;905&quot;&gt;- 快速支援短期專案需求&lt;br&gt;- 小功能開發與 Bug Fix 練兵&lt;br&gt;- 內部支援性任務（資料整理、臨時報表）&lt;br&gt;- 對外短期活動支援（Hackathon、小型比賽）&lt;/td&gt;&lt;td class=&quot;max-w-[calc(var(--thread-content-max-width)*2/3)]&quot; data-start=&quot;905&quot; data-end=&quot;945&quot;&gt;安排初階成員實戰，提升實戰經驗，但要控制比例，避免團隊偏離主要成長目標。&lt;/td&gt;&lt;/tr&gt;&lt;tr data-start=&quot;946&quot; data-end=&quot;1104&quot;&gt;&lt;td class=&quot;max-w-[calc(var(--thread-content-max-width)*2/3)]&quot; data-start=&quot;946&quot; data-end=&quot;968&quot;&gt;&lt;strong data-start=&quot;948&quot; data-end=&quot;956&quot;&gt;第四象限&lt;/strong&gt;&lt;br&gt;不緊急也不重要&lt;/td&gt;&lt;td class=&quot;max-w-[calc(var(--thread-content-max-width)*2/3)]&quot; data-start=&quot;968&quot; data-end=&quot;989&quot;&gt;無效耗損資源的活動，應盡量減少或避免&lt;/td&gt;&lt;td class=&quot;max-w-[calc(var(--thread-content-max-width)*2/3)] min-w-[calc(var(--thread-content-max-width)/3)]&quot; data-start=&quot;989&quot; data-end=&quot;1063&quot;&gt;- 追逐無實際商業價值的技術潮流&lt;br&gt;- 參與無焦點、低產出的會議&lt;br&gt;- 過多無關的社群/非技術活動&lt;br&gt;- 無效或冗長的內部流程作業&lt;/td&gt;&lt;td class=&quot;max-w-[calc(var(--thread-content-max-width)*2/3)]&quot; data-start=&quot;1063&quot; data-end=&quot;1104&quot;&gt;定期檢視並優化流程，清理無效任務與會議，讓團隊資源集中在真正成長與交付上。&lt;/td&gt;&lt;/tr&gt;&lt;/tbody&gt;&lt;/table&gt;&lt;/div&gt;&lt;/div&gt;&#xa;&lt;hr data-start=&quot;1106&quot; data-end=&quot;1109&quot; class=&quot;&quot;&gt;&#xa;&lt;h1 data-start=&quot;1111&quot; data-end=&quot;1124&quot; class=&quot;&quot;&gt;小結（軟體團隊培養版）&lt;/h1&gt;&#xa;&lt;div class=&quot;group pointer-events-none relative flex justify-center *:pointer-events-auto&quot;&gt;&lt;span class=&quot;pointer-events-none absolute start-full top-4 z-10 hidden h-full w-fit ps-2 md:block&quot; data-state=&quot;closed&quot;&gt;&lt;button class=&quot;hover:bg-token-main-surface-secondary text-token-text-secondary pointer-events-auto rounded-lg px-1 py-1 opacity-0 transition-opacity duration-200 group-focus-within:opacity-100 group-hover:opacity-100&quot;&gt;&lt;svg width=&quot;24&quot; height=&quot;24&quot; viewBox=&quot;0 0 24 24&quot; fill=&quot;none&quot; xmlns=&quot;http://www.w3.org/2000/svg&quot; class=&quot;icon-md-heavy&quot;&gt;&lt;path fill-rule=&quot;evenodd&quot; clip-rule=&quot;evenodd&quot; d=&quot;M7 5C7 3.34315 8.34315 2 10 2H19C20.6569 2 22 3.34315 22 5V14C22 15.6569 20.6569 17 19 17H17V19C17 20.6569 15.6569 22 14 22H5C3.34315 22 2 20.6569 2 19V10C2 8.34315 3.34315 7 5 7H7V5ZM9 7H14C15.6569 7 17 8.34315 17 10V15H19C19.5523 15 20 14.5523 20 14V5C20 4.44772 19.5523 4 19 4H10C9.44772 4 9 4.44772 9 5V7ZM5 9C4.44772 9 4 9.44772 4 10V19C4 19.5523 4.44772 20 5 20H14C14.5523 20 15 19.5523 15 19V10C15 9.44772 14.5523 9 14 9H5Z&quot; fill=&quot;currentColor&quot;&gt;&lt;/path&gt;&lt;/svg&gt;&lt;/button&gt;&lt;/span&gt;&lt;div class=&quot;tableContainer horzScrollShadows relative&quot;&gt;&lt;table class=&quot;min-w-full&quot; data-start=&quot;1126&quot; data-end=&quot;1309&quot;&gt;&lt;thead data-start=&quot;1126&quot; data-end=&quot;1137&quot;&gt;&lt;tr data-start=&quot;1126&quot; data-end=&quot;1137&quot;&gt;&lt;th data-start=&quot;1126&quot; data-end=&quot;1131&quot;&gt;重點&lt;/th&gt;&lt;th data-start=&quot;1131&quot; data-end=&quot;1137&quot;&gt;說明&lt;/th&gt;&lt;/tr&gt;&lt;/thead&gt;&lt;tbody data-start=&quot;1148&quot; data-end=&quot;1309&quot;&gt;&lt;tr data-start=&quot;1148&quot; data-end=&quot;1185&quot;&gt;&lt;td class=&quot;max-w-[calc(var(--thread-content-max-width)*2/3)]&quot; data-start=&quot;1148&quot; data-end=&quot;1159&quot;&gt;&lt;strong data-start=&quot;1150&quot; data-end=&quot;1158&quot;&gt;第一象限&lt;/strong&gt;&lt;/td&gt;&lt;td class=&quot;max-w-[calc(var(--thread-content-max-width)*2/3)]&quot; data-start=&quot;1159&quot; data-end=&quot;1185&quot;&gt;維持「基本穩定運作能力」。不能倒，不能失控。&lt;/td&gt;&lt;/tr&gt;&lt;tr data-start=&quot;1186&quot; data-end=&quot;1229&quot;&gt;&lt;td class=&quot;max-w-[calc(var(--thread-content-max-width)*2/3)]&quot; data-start=&quot;1186&quot; data-end=&quot;1197&quot;&gt;&lt;strong data-start=&quot;1188&quot; data-end=&quot;1196&quot;&gt;第二象限&lt;/strong&gt;&lt;/td&gt;&lt;td class=&quot;max-w-[calc(var(--thread-content-max-width)*2/3)]&quot; data-start=&quot;1197&quot; data-end=&quot;1229&quot;&gt;培養「可持續成長與領導力」。技術深度與組織韌性從這裡來。&lt;/td&gt;&lt;/tr&gt;&lt;tr data-start=&quot;1230&quot; data-end=&quot;1269&quot;&gt;&lt;td class=&quot;max-w-[calc(var(--thread-content-max-width)*2/3)]&quot; data-start=&quot;1230&quot; data-end=&quot;1241&quot;&gt;&lt;strong data-start=&quot;1232&quot; data-end=&quot;1240&quot;&gt;第三象限&lt;/strong&gt;&lt;/td&gt;&lt;td class=&quot;max-w-[calc(var(--thread-content-max-width)*2/3)]&quot; data-start=&quot;1241&quot; data-end=&quot;1269&quot;&gt;「練兵場」。讓新人成長，但避免佔用過多核心資源。&lt;/td&gt;&lt;/tr&gt;&lt;tr data-start=&quot;1270&quot; data-end=&quot;1309&quot;&gt;&lt;td class=&quot;max-w-[calc(var(--thread-content-max-width)*2/3)]&quot; data-start=&quot;1270&quot; data-end=&quot;1281&quot;&gt;&lt;strong data-start=&quot;1272&quot; data-end=&quot;1280&quot;&gt;第四象限&lt;/strong&gt;&lt;/td&gt;&lt;td class=&quot;max-w-[calc(var(--thread-content-max-width)*2/3)]&quot; data-start=&quot;1281&quot; data-end=&quot;1309&quot;&gt;「定期瘦身」。消除資源浪費，保持團隊敏捷有效率。&lt;/td&gt;&lt;/tr&gt;&lt;/tbody&gt;&lt;/table&gt;&lt;/div&gt;&lt;/div&gt;" id="fAezpIUFlMQ5wlY4UxWV-28">
          <mxCell style="text;whiteSpace=wrap;html=1;" vertex="1" parent="1">
            <mxGeometry x="110" y="2710" width="560" height="930" as="geometry" />
          </mxCell>
        </UserObject>
      </root>
    </mxGraphModel>
  </diagram>
</mxfile>
